<?xml version="1.0" encoding="utf-8"?><!DOCTYPE svg PUBLIC "-//W3C//DTD SVG 1.1//EN" "http://www.w3.org/Graphics/SVG/1.1/DTD/svg11.dtd"><svg version="1.1" id="Contours" xmlns="http://www.w3.org/2000/svg" xmlns:xlink="http://www.w3.org/1999/xlink" x="0px" y="0px" width="1985.962646px" height="1985.962646px" viewBox="0.000001 -0.000001 1985.962646 1797.812012" enable-background="new 0 0 1985.962646 1985.962646" xml:space="preserve" stroke="black" fill="none" stroke-linecap='round' stroke-linejoin='round'><path class="selected"  fill="#000000" opacity="1.000000" stroke="none" 
 	d="
M248.439356 889.843297 C360.081917 704.479415 512.025815 546.241117 675.974862 405.015977 C885.893500 224.192789 1125.695602 65.185613 1397.560765 11.779689 C1453.133520 0.862828 1510.816854 -5.483818 1566.191177 6.398660 C1621.565501 18.281138 1674.747429 50.787483 1700.304562 101.327981 C1726.673787 153.474430 1720.374204 216.452924 1702.933481 272.223968 C1662.955135 400.064657 1571.211155 504.093591 1481.907396 603.925190 C1597.517551 577.391376 1717.284055 552.877105 1833.918752 574.466425 C1882.717179 583.499113 1932.996352 602.742246 1961.820001 643.141171 C2014.575301 717.082448 1972.168709 820.687399 1917.903755 893.527970 C1851.758027 982.316262 1768.862600 1058.581838 1674.880840 1117.114281 C1633.928614 1142.619588 1641.145193 1226.887455 1592.900031 1226.986848 C1512.404914 1227.152683 1438.168460 1267.272644 1367.009723 1304.901505 C978.228669 1510.489629 566.369609 1672.396481 141.664112 1786.599916 C115.832795 1793.545963 89.148410 1800.374610 62.631758 1796.857275 C36.115106 1793.339940 9.506561 1776.954250 2.051463 1751.265226 C-5.651696 1724.721420 9.282576 1695.784929 31.086518 1678.799632 C52.890460 1661.814334 80.347573 1654.203880 107.024196 1646.974078 C185.761357 1625.635018 264.498518 1604.295958 343.235679 1582.956898 C308.337901 1557.445036 292.460694 1505.503108 314.390916 1468.250250 C336.321137 1430.997391 397.641089 1422.688729 423.639673 1457.225430 C451.318863 1493.994660 505.189632 1503.023586 549.110866 1489.274436 C593.032099 1475.525286 628.699673 1443.483032 660.128967 1409.862899 C749.901442 1313.832654 817.425244 1197.130173 855.938781 1071.441621 C702.639998 1086.878701 549.341215 1102.315781 396.042432 1117.752861 C334.381068 1123.962118 260.761049 1125.215982 223.996793 1075.325421 C184.662649 1021.947419 214.230053 946.642149 248.439356 889.843297 M430.611965 870.675903 C403.896625 906.207168 378.101447 942.682655 358.056643 982.361188 C538.463737 957.820311 719.802119 940.126356 901.550342 929.330203 C904.864971 929.133308 906.372973 925.175276 907.078662 921.930659 C944.123292 751.604814 941.963379 572.875685 900.813434 403.494816 C722.751659 535.588822 563.850698 693.469069 430.611965 870.675903 M1516.118205 142.660617 C1430.494824 142.553937 1345.847183 163.625503 1266.244023 195.164553 C1186.640862 226.703604 1111.591031 268.588061 1037.578567 311.640705 C1081.700390 442.070509 1135.423702 569.251194 1198.170160 691.813635 C1283.075002 612.848924 1363.034318 528.567353 1437.424018 439.626752 C1483.587373 384.433672 1528.010740 326.793885 1558.081797 261.425216 C1568.601703 238.556970 1577.434323 214.131997 1576.850800 188.966851 C1576.624040 179.187549 1574.814748 169.076232 1569.143218 161.106294 C1557.851415 145.238445 1535.593650 142.684881 1516.118208 142.660606 M1418.290593 988.704391 C1459.984982 1002.397871 1500.738227 1018.956149 1540.167798 1038.223801 C1543.662396 1039.931471 1547.702497 1037.614722 1550.888460 1035.383580 C1641.527771 971.908407 1731.794380 904.931122 1799.602025 817.485680 C1818.349147 793.309197 1835.467485 767.270643 1844.668145 738.093516 C1845.748556 734.667318 1846.709639 730.913010 1845.436690 727.553588 C1843.809775 723.260021 1839.138433 721.056581 1834.831306 719.465912 C1797.839455 705.804425 1757.242676 706.323031 1717.906226 709.093764 C1568.568553 719.612636 1421.430049 760.444470 1288.027962 828.387613 C1286.526434 829.152358 1284.894956 830.067286 1284.353310 831.662918 C1283.707784 833.564558 1284.877157 835.560276 1286.000339 837.225029 C1316.712681 882.746108 1350.978159 925.869291 1388.382364 966.073044 C1396.994181 975.329420 1406.278878 984.759444 1418.290591 988.704395 M1372.089384 1144.414515 C1350.225288 1113.819255 1310.348141 1102.960563 1273.444618 1095.732933 C1189.692379 1079.329908 1104.393016 1070.835635 1019.050725 1070.399911 C1014.663591 1070.377511 1009.205510 1071.086725 1007.749982 1075.225430 C969.578348 1183.764177 920.510603 1288.467651 861.523528 1387.251547 C1036.557699 1317.067134 1207.191192 1235.909864 1372.089384 1144.414515 M1072.877041 755.957810 C1069.529416 809.832140 1062.622316 863.485019 1052.215713 916.450599 C1051.390834 920.648917 1050.544006 924.842885 1049.697183 929.036831 C1094.772451 930.643860 1139.796242 933.694362 1184.676333 938.182087 C1142.199232 880.850264 1104.743162 819.799741 1072.877043 755.957809 z"/></svg>