<?xml version="1.0" encoding="utf-8"?><!DOCTYPE svg PUBLIC "-//W3C//DTD SVG 1.1//EN" "http://www.w3.org/Graphics/SVG/1.1/DTD/svg11.dtd"><svg version="1.1" id="Contours" xmlns="http://www.w3.org/2000/svg" xmlns:xlink="http://www.w3.org/1999/xlink" x="0px" y="0px" width="2230.000000px" height="2230.000000px" viewBox="0.000000 -0.000026 2230.000000 1052.340088" enable-background="new 0 0 2230.000000 2230.000000" xml:space="preserve" stroke="black" fill="none" stroke-linecap='round' stroke-linejoin='round'><path class="selected"  fill="#000000" opacity="1.000000" stroke="none" 
 	d="
M2230.000005 851.729701 C2225.716070 853.804286 2228.150884 857.399745 2228.141851 859.815272 C2227.953619 909.477748 2227.757086 959.143031 2228.214361 1008.801967 C2228.301031 1018.219325 2224.030523 1024.223109 2217.581060 1029.390834 C2215.339605 1031.186977 2211.821295 1031.827357 2208.802252 1032.114101 C2204.177740 1032.553554 2199.466070 1032.447353 2194.820074 1032.140468 C2192.396246 1031.980189 2189.525884 1031.541713 2187.725103 1030.125453 C2175.533453 1020.538173 2160.245855 1017.391689 2146.979254 1010.129481 C2135.812505 1004.016444 2124.527349 998.002162 2113.944341 990.966640 C2096.859136 979.607875 2080.191168 967.668788 2065.599859 952.991420 C2051.638921 938.948329 2036.329229 926.202968 2022.859136 911.727382 C2008.822149 896.643031 1995.875005 880.484584 1983.177007 864.229091 C1966.741705 843.188930 1950.935430 821.653529 1935.059820 800.182582 C1930.984380 794.670863 1927.544439 788.672206 1924.023565 782.771327 C1914.621099 767.013393 1906.207037 750.569789 1895.656133 735.630458 C1889.794073 727.330409 1886.639776 717.841151 1880.774542 709.631313 C1875.060308 701.632777 1870.955694 692.448695 1866.451788 683.628139 C1856.201177 663.553310 1846.147466 643.378017 1835.997564 623.251674 C1825.305792 602.050014 1815.446539 580.457362 1806.057745 558.657558 C1801.065069 547.065272 1796.685308 535.209682 1791.991094 523.488002 C1790.045049 518.628627 1787.889410 513.851039 1786.021612 508.962733 C1781.183111 496.299281 1775.987432 483.744228 1771.841070 470.854213 C1769.097418 462.324916 1765.607183 454.074428 1763.600347 445.198085 C1761.377569 435.366420 1756.697759 426.106532 1753.355108 416.504665 C1751.827032 412.114833 1751.142462 407.432155 1749.629034 403.035976 C1749.209478 401.817592 1747.190191 401.149989 1745.904913 400.229701 C1745.270025 401.456569 1744.251959 402.633510 1744.084112 403.921230 C1743.785040 406.215419 1744.000005 408.576564 1744.000005 410.909755 C1744.000005 512.235683 1743.795171 613.562587 1744.249151 714.886439 C1744.308599 728.141078 1734.176763 738.327357 1721.814947 740.677089 C1715.548101 741.868251 1710.175176 739.941127 1704.384649 740.087001 C1702.426641 740.136195 1699.919195 739.020351 1698.532598 737.592372 C1691.824346 730.683803 1685.699224 723.846522 1685.823858 712.831752 C1686.272588 673.173061 1687.698004 633.414027 1685.552007 593.866786 C1683.104498 548.762782 1686.174444 503.672084 1683.757574 458.693935 C1680.118170 390.963405 1682.765753 323.241847 1682.138433 255.522914 C1681.508795 187.533778 1681.989630 119.534145 1682.011114 51.539149 C1682.014410 41.262721 1689.092169 30.451198 1698.524908 26.767238 C1709.592779 22.444667 1720.425543 22.962001 1729.613531 31.023708 C1737.827276 38.230678 1742.709478 46.865993 1742.287725 58.839687 C1741.758672 73.853664 1741.545782 89.310146 1744.549810 103.884425 C1747.081182 116.165736 1745.766241 129.228481 1751.539068 140.877956 C1752.206182 142.224391 1751.989263 144.068385 1751.981329 145.680629 C1751.918096 158.520778 1752.624883 171.224208 1757.926641 183.224208 C1758.296392 184.061061 1758.061041 185.201076 1757.989385 186.191493 C1757.213384 196.904811 1762.548223 206.801601 1763.056280 216.887294 C1763.741949 230.496303 1770.062628 242.656215 1770.257940 256.212550 C1770.350225 262.608302 1773.634405 268.737514 1774.630743 275.402187 C1776.503057 287.925990 1780.604742 300.134669 1784.036871 312.402431 C1787.875494 326.122951 1791.342413 340.003566 1796.218878 353.358852 C1799.782476 363.118800 1801.189214 373.270106 1804.053472 383.107082 C1805.862921 389.321864 1807.711675 395.604518 1810.389410 401.470241 C1815.564092 412.805141 1819.010015 424.641811 1822.024786 436.656093 C1822.169073 437.231288 1822.740240 437.685390 1823.003668 438.247035 C1832.187750 457.825404 1837.567022 478.888148 1846.221441 498.618861 C1852.057867 511.925014 1855.761846 526.256435 1862.488531 538.823695 C1870.972662 554.674770 1876.649908 571.715419 1885.637701 587.337978 C1893.116583 600.337367 1897.346685 615.162929 1904.163458 628.597377 C1912.296514 644.625087 1921.621588 660.049770 1930.490118 675.701869 C1935.848028 685.157802 1941.159307 694.646205 1946.773809 703.949672 C1958.209600 722.899013 1969.432501 741.996669 1981.522588 760.524501 C1989.999761 773.515590 2000.361578 785.277797 2008.820806 798.279140 C2021.623907 817.956630 2036.679815 835.753505 2052.106207 853.303676 C2058.365972 860.425136 2064.636480 867.552577 2071.222173 874.368007 C2080.677252 884.152675 2090.272222 893.813197 2100.084478 903.238490 C2113.541509 916.165126 2128.047369 927.861049 2143.602056 938.174403 C2151.122808 943.161098 2159.256353 947.238124 2166.666509 952.370570 C2170.220953 954.832362 2171.130865 952.767299 2171.880377 950.497768 C2172.475836 948.694423 2172.000005 946.537440 2172.000005 944.537563 C2172.000005 867.543178 2173.740972 790.497646 2171.473150 713.570033 C2169.505377 646.814662 2171.204839 580.111293 2170.011480 513.397426 C2169.848638 504.293300 2169.920904 504.240077 2160.411871 504.238002 C2091.416998 504.222499 2022.407598 503.448817 1953.436163 504.724208 C1933.753057 505.088344 1913.964239 506.452357 1894.266485 505.959315 C1879.756109 505.596156 1866.828741 500.113246 1861.582891 484.712611 C1856.204229 468.922450 1861.358160 453.460658 1880.658331 448.260219 C1892.211187 445.147426 1904.011846 444.143153 1915.990728 444.173183 C1968.319830 444.304530 2020.685186 445.388759 2072.965338 443.783412 C2103.035406 442.860072 2133.084234 442.681117 2163.143804 442.215175 C2168.212652 442.136562 2169.849615 439.300624 2168.734136 433.869960 C2168.086431 430.715541 2168.028570 427.401088 2168.027349 424.158534 C2167.993902 320.499477 2168.352300 216.837917 2167.635992 113.183803 C2167.523199 96.859828 2165.937994 80.422633 2166.076177 64.014064 C2166.156988 54.465602 2168.558599 45.429347 2173.976568 37.313564 C2182.534918 24.493861 2207.343755 21.972194 2216.647955 33.264369 C2223.826421 41.976588 2227.973638 50.769191 2227.976812 61.697658 C2228.013921 183.022121 2227.991705 304.346522 2228.041998 425.670985 C2228.043463 429.190700 2228.666509 432.710170 2229.500005 436.229701 C2230.000005 443.229701 2230.000005 450.229701 2229.500005 457.729701 C2228.666998 465.041591 2228.290045 471.852260 2228.089361 478.668056 C2228.074713 479.169398 2229.333257 479.708339 2230.000005 480.229701 C2230.000005 481.229701 2230.000005 482.229701 2229.500005 483.729701 C2228.766851 493.996547 2228.522222 503.763148 2228.372320 513.531093 C2228.368658 513.755580 2229.433599 513.996425 2230.000005 514.229701 C2230.000005 518.563075 2230.000005 522.896327 2229.500005 527.729701 C2228.666754 535.041591 2228.289800 541.852138 2228.089117 548.668056 C2228.074713 549.169398 2229.333257 549.708339 2230.000005 550.229701 C2230.000005 554.563075 2230.000005 558.896327 2229.500005 563.729701 C2228.666754 569.052577 2228.119146 573.875087 2228.109136 578.698695 C2228.105230 580.541103 2229.333502 582.385951 2230.000005 584.229701 C2230.000005 597.229701 2230.000005 610.229701 2229.500005 623.729701 C2228.666754 629.052577 2228.119146 633.875087 2228.109136 638.698695 C2228.105474 640.541103 2229.333257 642.385951 2230.000005 644.229701 C2230.000005 646.563075 2230.000005 648.896327 2229.500005 651.729701 C2228.148931 655.681483 2226.099615 659.253139 2230.000005 662.229701 C2230.000005 663.896327 2230.000005 665.563075 2229.500005 667.729701 C2228.666754 673.052577 2228.118902 677.875087 2228.109136 682.698695 C2228.105474 684.541103 2229.333502 686.385951 2230.000005 688.229701 C2230.000005 689.896327 2230.000005 691.563075 2229.500005 693.729701 C2228.666754 699.052577 2228.118902 703.875087 2228.109136 708.698695 C2228.105474 710.541103 2229.333502 712.385951 2230.000005 714.229701 C2230.000005 722.563075 2230.000005 730.896327 2229.500005 739.729701 C2228.148931 743.681483 2226.099615 747.253139 2230.000005 750.229701 C2230.000005 760.563075 2230.000005 770.896327 2229.500005 781.729701 C2227.627203 786.371913 2226.585699 790.486415 2230.000005 794.229701 C2230.000005 813.229701 2230.000005 832.229701 2230.000005 851.729701 z"/><path class="selected"  fill="#000000" opacity="1.000000" stroke="none" 
 	d="
M0.000000 30.729701 C3.828265 27.401393 7.663348 24.582240 11.476901 21.734340 C12.005495 21.339564 12.454613 20.367458 12.894969 20.394862 C21.865480 20.952968 31.068563 18.265529 39.753698 22.905299 C50.923021 28.872401 61.886022 35.573817 73.694364 39.888759 C83.535337 43.484889 92.123770 48.817897 100.767126 54.179103 C113.038297 61.790553 124.900533 70.072902 136.788275 78.284572 C141.008734 81.199977 145.035497 84.494289 148.735952 88.047633 C169.754995 108.230739 191.627462 127.647365 211.281652 149.091823 C227.662481 166.964748 242.433386 186.408839 257.146978 205.831813 C271.508886 224.790614 285.300482 244.115016 298.374578 263.902187 C312.971990 285.994960 326.278570 308.946132 339.962805 331.634792 C347.503851 344.137904 355.009527 356.686183 361.880255 369.561488 C366.508947 378.235316 369.720892 387.654323 374.087225 396.482448 C377.658819 403.703761 382.474035 410.321498 385.898535 417.601588 C392.451879 431.533412 398.275915 445.806361 404.656164 459.822231 C409.383123 470.206142 415.830114 480.007045 419.106878 490.797694 C422.721349 502.700648 428.967016 513.379359 432.785925 525.223964 C436.123998 535.577235 440.607885 545.927821 444.912878 556.144130 C451.633215 572.092616 456.302801 588.817958 462.567816 604.841884 C466.041876 613.727382 468.809179 622.963954 472.012243 631.889003 C475.211401 640.803188 480.123449 649.588466 480.087133 659.605800 C480.083959 660.478114 481.307531 661.354945 481.961248 662.229701 C482.640814 661.380702 483.763189 660.600551 483.907995 659.668544 C484.211340 657.715785 484.000005 655.682948 484.000005 653.683070 C484.000005 643.683559 484.150396 633.681239 483.972509 623.684901 C483.378362 590.294521 484.120062 556.795253 481.579656 523.549403 C479.175726 492.089320 480.722112 460.737147 480.117071 429.347682 C479.564764 400.692897 479.833776 372.017543 480.108129 343.354762 C480.183782 335.450404 482.542700 328.017299 487.619940 321.485744 C493.934973 313.361781 502.209722 312.434352 511.814520 311.909938 C526.643316 311.100246 534.072332 318.121059 538.787664 330.342311 C541.128912 336.410548 541.865423 343.427882 541.873541 350.017665 C542.041387 486.678065 542.000005 623.338710 542.000005 759.999355 C546.048834 796.994106 541.762274 834.209193 544.356085 871.140956 C547.313055 913.243739 544.905218 955.282436 545.929449 997.333705 C546.241033 1010.122401 534.429266 1025.444057 522.941351 1028.229579 C509.545294 1031.477992 494.828069 1023.794154 487.921606 1010.426723 C485.048498 1004.866054 483.762884 999.342372 483.863012 993.041713 C484.046728 981.481532 485.080480 969.866664 480.268743 958.587733 C478.584539 954.639735 479.902014 949.367030 480.018286 944.703456 C480.371984 930.517055 478.447698 916.679530 474.052130 903.173183 C473.659796 901.967616 473.867590 900.508266 474.020727 899.192836 C475.391760 887.416225 471.276006 876.581996 468.334875 865.541225 C468.089971 864.622035 467.967016 863.625697 468.020910 862.678554 C468.758672 849.716029 464.114904 837.867763 460.635900 825.741786 C459.334356 821.205287 459.257513 816.331020 458.392462 811.653285 C456.334570 800.524989 454.311620 789.385097 451.944341 778.320644 C450.121038 769.798915 447.829839 761.375819 445.683843 752.924892 C443.157964 742.977748 440.683630 733.014613 437.931921 723.129359 C437.031469 719.894618 434.972112 716.983119 434.066961 713.749110 C431.218542 703.571620 428.870031 693.252528 425.938726 683.100673 C423.369360 674.202235 420.511907 665.369594 417.363409 656.659267 C410.449651 637.532191 402.154791 618.820399 396.574957 599.323451 C392.540624 585.226649 386.331121 572.183559 381.493078 558.533046 C376.536810 544.549037 369.759588 531.356532 364.589849 517.536708 C359.270880 503.317836 352.733557 489.767299 346.087866 476.187709 C341.626226 467.071010 338.473913 457.305263 333.890508 448.258144 C326.756170 434.175868 318.838629 420.492152 311.379827 406.571559 C307.002325 398.401698 302.980871 390.040981 298.603338 381.871120 C291.244573 368.137294 284.179693 354.314418 274.825689 341.642360 C268.077154 332.499843 263.971258 321.455836 257.891577 311.758388 C249.716726 298.718959 240.906042 286.069362 232.122778 273.422939 C225.259802 263.541347 218.112509 253.852748 210.925802 244.201808 C204.452383 235.508754 198.028723 226.754237 191.093511 218.434901 C179.056906 203.996120 166.965963 189.575526 154.261892 175.730861 C146.977514 167.792506 138.395147 161.052150 130.487615 153.675441 C126.833822 150.266994 123.583936 146.412135 119.828588 143.128383 C104.252439 129.508083 88.195692 116.490321 70.096601 106.293544 C65.885580 103.921230 62.681692 98.938747 56.730291 100.499416 C56.486860 105.065028 56.031942 109.630641 56.030718 114.196315 C55.993109 254.190089 56.000005 394.183925 56.000005 534.177699 C56.000005 536.510951 55.813261 538.862392 56.038404 541.173671 C56.525057 546.169521 58.754549 548.214564 63.704511 548.215907 C137.701238 548.235805 211.705801 548.791835 285.688116 547.759975 C300.666448 547.551234 315.798681 546.681728 330.864507 546.239345 C344.083532 545.851039 354.105352 552.136562 362.432073 561.712367 C364.897344 564.547450 367.123876 577.522792 365.957433 582.554408 C363.518194 593.076625 359.363561 600.804774 347.255102 604.840175 C336.497045 608.425380 326.187811 608.315272 315.728643 607.829066 C311.170263 607.617030 306.824651 608.466762 302.366003 608.434535 C256.370489 608.100917 210.369787 607.981654 164.374197 608.312953 C131.315405 608.551112 98.261823 609.546352 65.206770 610.244472 C58.810339 610.379604 58.038542 611.095424 58.028558 617.779994 C57.970297 656.778285 56.264269 695.874721 58.462499 734.748744 C60.919172 778.192714 59.276167 821.553798 59.868795 864.942470 C60.465086 908.599086 60.124632 952.270595 59.946680 995.934657 C59.859560 1017.310268 33.137701 1034.166957 15.130531 1023.991298 C10.575425 1021.417201 7.712010 1015.888393 3.959561 1011.820399 C3.241743 1011.042201 2.000023 1010.747401 0.500014 1010.229701 C0.000005 683.896327 0.000005 357.563014 0.000000 30.729701 z"/><path class="selected"  fill="#000000" opacity="1.000000" stroke="none" 
 	d="
M1146.000005 576.229701 C1146.000005 667.554652 1146.024908 757.879726 1145.911871 848.204555 C1145.907232 851.923793 1147.501837 855.967250 1144.154058 859.520351 C1143.156011 860.579799 1143.551641 863.500819 1144.072637 865.354213 C1147.521124 877.621181 1146.445928 889.792812 1144.114385 902.078944 C1143.381719 905.939540 1144.069097 910.057948 1143.987432 914.055873 C1143.714117 927.431483 1136.492803 935.700893 1124.582525 940.693813 C1115.489263 944.505702 1103.361700 941.819545 1095.324713 934.668788 C1084.548956 925.081508 1079.819219 913.548061 1079.853765 898.981776 C1080.119512 786.659389 1080.000005 674.336147 1080.000005 562.013148 C1080.000005 559.680019 1080.288091 557.294032 1079.873296 555.037196 C1079.677740 553.973354 1078.243658 552.550624 1077.175909 552.355434 C1074.918218 551.942592 1072.532598 552.229701 1070.199468 552.229701 C983.540777 552.229701 896.882086 552.235561 810.223394 552.223720 C796.168585 552.221767 779.421880 540.498134 776.231695 527.259731 C773.303533 515.108852 781.065740 498.983607 793.742132 494.387172 C801.446356 491.593593 809.445745 490.002895 818.026556 490.035976 C901.351019 490.358363 984.677130 490.229701 1068.002813 490.229701 C1070.002569 490.229701 1072.004278 490.175380 1074.001837 490.241298 C1078.009161 490.373378 1080.168463 488.679652 1080.012701 484.470546 C1079.938848 482.473598 1080.000005 480.471400 1080.000005 478.471645 C1080.000005 367.148585 1079.937383 255.825404 1080.076544 144.502528 C1080.094610 130.095424 1086.283087 118.623073 1099.725836 112.323756 C1108.925665 108.012721 1120.171636 108.913417 1129.212896 116.541530 C1133.020269 119.753993 1136.466070 123.432826 1139.832647 127.121852 C1145.380132 133.200587 1144.952398 141.283351 1145.754888 148.576503 C1146.769537 157.797328 1146.000005 167.214503 1146.000005 176.546962 C1146.000005 266.871974 1146.066656 357.197047 1145.911993 447.521815 C1145.893560 458.245814 1144.588873 468.963832 1144.065069 479.693690 C1143.959112 481.862270 1144.430181 484.154750 1145.101568 486.239955 C1145.845587 488.551112 1146.408331 491.351527 1150.240362 490.316737 C1152.104131 489.813319 1154.216436 490.229701 1156.216192 490.229701 C1237.541998 490.229701 1318.868047 490.179774 1400.193487 490.330165 C1406.308721 490.341396 1412.370733 487.564906 1418.549932 490.194789 C1424.215338 492.606044 1430.824102 493.671596 1435.486212 497.298183 C1439.326910 500.285854 1442.157842 505.891200 1443.212774 510.813197 C1444.599981 517.284022 1445.010259 524.103236 1442.488531 530.914638 C1437.454473 544.512660 1426.380132 549.437099 1413.717901 549.975795 C1392.092413 550.896083 1370.399420 550.229701 1348.734747 550.229701 C1285.073980 550.229701 1221.413091 550.229701 1157.752325 550.229701 C1155.752447 550.229701 1153.750372 550.291225 1151.753301 550.217128 C1147.538946 550.060756 1145.925421 552.229579 1145.977911 556.233485 C1146.060919 562.564540 1146.000005 568.897548 1146.000005 576.229701 z"/><path class="selected"  fill="#000000" opacity="1.000000" stroke="none" 
 	d="
M693.500005 960.729701 C701.055975 968.482509 710.126592 972.116664 719.643682 974.082606 C732.030279 976.641444 744.041876 980.690761 757.122808 980.757411 C763.273504 980.788783 770.306585 980.582973 776.203924 982.510829 C788.232671 986.443080 800.809515 985.113490 812.901495 987.934901 C819.733648 989.529018 826.929388 989.960414 833.980657 990.134731 C847.305059 990.463832 860.664251 989.774867 873.968572 990.387782 C883.020757 990.804774 892.374517 987.685146 901.145696 992.229701 C910.303472 988.293544 919.921758 990.720668 929.319219 990.317226 C938.634771 989.917201 948.001776 990.611659 957.306829 990.104091 C964.253484 989.725063 971.107000 987.785121 978.056036 987.272548 C989.815618 986.404994 1001.585943 983.476405 1013.091070 990.063441 C1023.043829 995.761806 1027.111089 1004.573939 1027.776739 1014.853603 C1028.482061 1025.746425 1023.621588 1034.798183 1013.737737 1040.156825 C1004.558477 1045.133754 994.959112 1048.493251 984.091619 1048.404750 C972.041448 1048.306483 959.753484 1048.347499 947.982183 1050.542934 C933.835211 1053.181361 919.813055 1051.716029 905.752203 1052.140346 C892.098821 1052.552455 878.423101 1052.190883 864.757452 1052.242519 C854.454107 1052.281581 844.487554 1049.992519 834.379156 1048.477138 C826.229498 1047.255458 817.750433 1048.267421 809.417913 1048.219447 C800.447332 1048.167934 791.758001 1047.956142 782.910711 1044.669643 C775.906866 1042.067958 767.630010 1042.505702 759.903936 1042.359340 C753.740484 1042.242641 747.777532 1041.955653 742.096746 1039.356532 C740.981146 1038.846034 739.707708 1038.189540 738.570440 1038.293422 C728.101263 1039.250819 718.742742 1033.664149 708.990606 1032.768031 C690.786993 1031.095180 674.917303 1022.868251 657.937017 1017.944911 C651.260687 1016.009242 645.072393 1011.967738 639.427801 1006.991664 C623.234869 992.716640 613.941290 974.534022 605.336431 955.189052 C600.055181 943.316005 597.758001 931.499355 598.160589 919.222377 C602.151556 797.517055 599.368963 675.784267 599.886114 554.067836 C600.404363 432.077602 600.000005 310.083522 600.000005 188.091151 C604.343023 145.427333 600.566717 102.628810 602.265630 59.938197 C602.627630 50.839870 602.575506 41.302699 606.613958 32.493922 C609.939947 25.239345 616.082647 21.341151 622.792913 18.704616 C629.100286 16.226344 635.209905 16.257655 642.594732 19.008266 C652.775579 22.800380 657.989691 29.025233 661.028143 38.352809 C661.805547 40.739589 661.962286 43.413844 661.962713 45.956142 C662.003118 262.275966 662.000005 478.595790 662.000005 694.915614 C657.430425 765.264857 661.344549 835.695277 659.892401 906.071864 C659.698858 915.452968 663.825994 923.014613 667.660711 930.899501 C673.510198 942.927211 683.928655 950.993495 693.500005 960.729701 z"/><path class="selected"  fill="#000000" opacity="1.000000" stroke="none" 
 	d="
M1624.000005 1006.229701 C1622.114752 1011.781459 1620.371099 1016.398402 1618.314581 1020.871547 C1614.160650 1029.906703 1606.633184 1033.880092 1597.045538 1034.186732 C1589.334356 1034.433437 1582.292120 1033.606044 1575.108526 1029.031703 C1569.442022 1025.423427 1567.723150 1020.524013 1566.256597 1015.590175 C1563.994512 1007.980312 1562.158819 1000.102870 1563.777715 991.768764 C1564.450445 988.305629 1561.809088 984.289638 1562.129644 980.653285 C1566.392584 932.303554 1563.273321 883.870937 1563.869390 835.486171 C1564.464727 787.165981 1562.305303 738.758144 1564.429815 690.524135 C1567.076299 630.437221 1565.289922 570.404140 1565.870611 510.354091 C1566.457159 449.700282 1566.000005 389.036525 1566.000005 328.377162 C1566.000005 268.051051 1565.635626 207.721034 1566.287359 147.402003 C1566.428961 134.302516 1560.882208 123.943385 1554.431402 114.291347 C1548.468511 105.369044 1539.352789 98.548000 1531.594488 90.832912 C1522.481451 81.770595 1510.807256 78.420436 1498.648199 76.242397 C1487.155401 74.183498 1475.695928 71.802943 1464.121343 70.384303 C1456.779546 69.484462 1449.321905 70.469081 1441.937994 68.346034 C1429.406866 64.743007 1415.836309 67.325954 1403.423101 62.325343 C1401.702642 61.632228 1399.462164 62.229701 1397.462408 62.229701 C1379.797857 62.229701 1362.111578 62.746852 1344.478155 62.006129 C1335.977056 61.649135 1327.584600 62.590358 1319.126348 62.302150 C1309.804937 61.984645 1300.464361 62.229701 1291.132208 62.229701 C1282.133306 62.229701 1273.126959 62.010768 1264.138555 62.318874 C1259.397955 62.481288 1254.230718 62.571681 1250.085211 64.488124 C1245.229742 66.732692 1240.561285 65.978236 1235.793829 66.180934 C1231.356451 66.369594 1226.916265 66.785670 1222.451544 66.254909 C1212.948736 65.125209 1200.488409 51.214870 1199.912847 41.735622 C1199.256963 30.931178 1200.593878 20.969630 1209.583746 13.737819 C1215.308843 9.132350 1222.478399 7.611842 1229.471929 6.344508 C1236.098272 5.143825 1242.893682 4.390956 1249.621099 4.344325 C1260.605718 4.268153 1271.420049 3.689113 1281.990240 0.326991 C1284.108892 -0.346898 1286.625372 0.229701 1288.958380 0.229701 C1313.955450 0.229701 1338.952520 0.267970 1363.949468 0.209865 C1373.279058 0.188197 1382.232794 2.114955 1391.358160 3.870326 C1400.036016 5.539638 1409.295782 3.977443 1418.283819 4.289577 C1431.340460 4.743129 1444.200689 6.735072 1456.877447 9.999660 C1459.370855 10.641811 1462.148199 10.197841 1464.794683 10.226527 C1471.510259 10.299159 1478.223882 9.716090 1484.481085 13.463710 C1486.471319 14.655605 1489.573980 13.879970 1492.129888 14.259181 C1498.072759 15.140895 1504.115118 15.724513 1509.885504 17.285731 C1515.098638 18.696193 1520.102178 20.226588 1525.635381 20.455531 C1529.464605 20.613918 1533.111456 23.531337 1537.004156 24.110255 C1548.522833 25.823207 1558.685796 31.423732 1569.534918 35.002040 C1587.055059 40.780727 1597.931402 54.874171 1607.882208 69.302028 C1618.003546 83.977321 1622.381475 101.267299 1627.933721 117.953212 C1628.432867 119.453517 1628.017217 121.264247 1627.997320 122.930446 C1627.868536 133.710231 1629.771002 144.557704 1627.914556 155.254726 C1624.558599 174.592433 1627.744512 194.170558 1625.557989 213.383754 C1624.375005 223.779262 1627.186041 233.606837 1626.134161 243.787196 C1624.887701 255.850734 1626.500250 268.229030 1625.326666 280.074062 C1624.388921 289.537868 1624.139776 298.945949 1624.132940 308.308986 C1623.963384 540.615810 1624.000005 772.922816 1624.000005 1006.229701 z"/></svg>